# Blender 3.6.1
# www.blender.org
mtllib snowflake with gradient.mtl
o snowflake_1_
v 0.042233 0.451011 -0.000000
v 0.418665 0.438097 -0.000000
v 0.372846 0.453174 -0.000000
v 0.212139 0.453190 -0.000000
v 0.324123 0.454625 -0.000000
v 0.325280 0.419159 -0.000000
v 0.213297 0.417723 -0.000000
v 0.396575 0.489757 -0.000000
v 0.375830 0.509925 -0.000000
v 0.374753 0.421696 -0.000000
v 0.377604 0.366745 -0.000000
v 0.401915 0.390513 -0.000000
v 0.268131 0.453907 -0.000000
v 0.316151 0.560208 -0.000000
v 0.344237 0.532214 -0.000000
v 0.269289 0.418441 -0.000000
v 0.324177 0.307420 -0.000000
v 0.352852 0.334687 -0.000000
v 0.291645 0.732317 -0.000000
v 0.248585 0.710579 -0.000000
v 0.134937 0.596953 -0.000000
v 0.213106 0.677153 -0.000000
v 0.239004 0.652893 -0.000000
v 0.160834 0.572693 -0.000000
v 0.239496 0.753226 -0.000000
v 0.210567 0.752818 -0.000000
v 0.272192 0.689669 -0.000000
v 0.313064 0.652829 -0.000000
v 0.313449 0.686826 -0.000000
v 0.174022 0.637053 -0.000000
v 0.132811 0.746175 -0.000000
v 0.172466 0.746240 -0.000000
v 0.199919 0.612793 -0.000000
v 0.317235 0.573102 -0.000000
v 0.318230 0.612659 -0.000000
v 0.016336 0.475271 -0.000000
v -0.019131 0.474113 0.000000
v -0.006216 0.850546 0.000000
v -0.021293 0.804726 0.000000
v -0.021309 0.644020 0.000000
v -0.022745 0.756003 0.000000
v 0.012722 0.757161 0.000000
v 0.014157 0.645177 0.000000
v -0.057877 0.828455 0.000000
v -0.078044 0.807711 0.000000
v 0.010185 0.806633 0.000000
v 0.065136 0.809484 -0.000000
v 0.041368 0.833796 -0.000000
v -0.022027 0.700011 0.000000
v -0.128328 0.748032 0.000000
v -0.100333 0.776118 0.000000
v 0.013439 0.701169 0.000000
v 0.124461 0.756058 -0.000000
v 0.097193 0.784733 -0.000000
v -0.300436 0.723526 0.000000
v -0.278698 0.680466 0.000000
v -0.165073 0.566818 0.000000
v -0.245272 0.644987 0.000000
v -0.221012 0.670884 0.000000
v -0.140813 0.592715 0.000000
v -0.321346 0.671376 0.000000
v -0.320938 0.642447 0.000000
v -0.257789 0.704072 0.000000
v -0.220948 0.744945 0.000000
v -0.254945 0.745329 0.000000
v -0.205172 0.605903 0.000000
v -0.314294 0.564692 0.000000
v -0.314359 0.604347 0.000000
v -0.180913 0.631800 0.000000
v -0.141221 0.749116 0.000000
v -0.180778 0.750111 0.000000
v -0.016336 0.388490 0.000000
v -0.042233 0.412750 0.000000
v -0.043390 0.448216 0.000000
v -0.418665 0.425665 0.000000
v -0.372846 0.410587 0.000000
v -0.212139 0.410572 0.000000
v -0.324123 0.409136 0.000000
v -0.325280 0.444602 0.000000
v -0.213297 0.446038 0.000000
v -0.396575 0.374004 0.000000
v -0.375830 0.353836 0.000000
v -0.374753 0.442065 0.000000
v -0.377604 0.497016 0.000000
v -0.401915 0.473249 0.000000
v -0.268131 0.409854 0.000000
v -0.316151 0.303553 0.000000
v -0.344237 0.331547 0.000000
v -0.269289 0.445320 0.000000
v -0.324177 0.556341 0.000000
v -0.352852 0.529074 0.000000
v 0.019131 0.389648 0.000000
v -0.291645 0.131444 0.000000
v -0.248585 0.153182 0.000000
v -0.134937 0.266808 0.000000
v -0.213106 0.186608 0.000000
v -0.239004 0.210868 0.000000
v -0.160834 0.291068 0.000000
v -0.239496 0.110535 0.000000
v -0.210567 0.110943 0.000000
v -0.272192 0.174092 0.000000
v -0.313064 0.210932 0.000000
v -0.313449 0.176935 0.000000
v -0.174022 0.226708 0.000000
v -0.132811 0.117586 0.000000
v -0.172466 0.117522 0.000000
v -0.199919 0.250968 0.000000
v -0.317235 0.290660 0.000000
v -0.318230 0.251103 0.000000
v 0.006216 0.013216 0.000000
v 0.021293 0.059035 0.000000
v 0.021309 0.219742 0.000000
v 0.022745 0.107758 0.000000
v -0.012722 0.106600 0.000000
v -0.014157 0.218584 0.000000
v 0.057877 0.035306 0.000000
v 0.078044 0.056050 0.000000
v -0.010184 0.057128 0.000000
v -0.065135 0.054277 0.000000
v -0.041368 0.029965 0.000000
v 0.022027 0.163750 0.000000
v 0.128328 0.115729 0.000000
v 0.100333 0.087643 0.000000
v -0.013439 0.162592 0.000000
v -0.124461 0.107703 0.000000
v -0.097193 0.079028 0.000000
v 0.043390 0.415545 0.000000
v 0.300436 0.140236 0.000000
v 0.278698 0.183296 0.000000
v 0.165073 0.296944 0.000000
v 0.245272 0.218774 0.000000
v 0.221013 0.192877 0.000000
v 0.140813 0.271046 0.000000
v 0.321346 0.192385 0.000000
v 0.320938 0.221314 0.000000
v 0.257789 0.159689 0.000000
v 0.220949 0.118817 0.000000
v 0.254946 0.118432 0.000000
v 0.205172 0.257859 0.000000
v 0.314294 0.299070 -0.000000
v 0.314359 0.259415 -0.000000
v 0.180913 0.231962 0.000000
v 0.141221 0.114646 0.000000
v 0.180778 0.113650 0.000000
v 0.372846 0.453174 -0.010218
v 0.418665 0.438097 -0.010219
v 0.042233 0.451011 -0.010218
v 0.212139 0.453190 -0.010218
v 0.268131 0.453907 -0.010218
v 0.324123 0.454625 -0.010218
v 0.269289 0.418441 -0.010218
v 0.213297 0.417723 -0.010218
v 0.374753 0.421696 -0.010218
v 0.325280 0.419159 -0.010218
v 0.375830 0.509925 -0.010218
v 0.396575 0.489757 -0.010218
v 0.401915 0.390513 -0.010219
v 0.377604 0.366745 -0.010218
v 0.316151 0.560208 -0.010219
v 0.344237 0.532214 -0.010219
v 0.352852 0.334687 -0.010218
v 0.324177 0.307420 -0.010218
v 0.248585 0.710579 -0.010218
v 0.291645 0.732317 -0.010219
v 0.174022 0.637053 -0.010218
v 0.213106 0.677153 -0.010218
v 0.199919 0.612793 -0.010218
v 0.160834 0.572693 -0.010218
v 0.272192 0.689669 -0.010219
v 0.239004 0.652893 -0.010218
v 0.210567 0.752818 -0.010218
v 0.239496 0.753226 -0.010218
v 0.313449 0.686826 -0.010219
v 0.313064 0.652829 -0.010219
v 0.134937 0.596953 -0.010218
v 0.132811 0.746175 -0.010218
v 0.172466 0.746240 -0.010218
v 0.318230 0.612659 -0.010219
v 0.317235 0.573102 -0.010219
v -0.021293 0.804726 -0.010218
v -0.006216 0.850546 -0.010218
v -0.019131 0.474113 -0.010218
v -0.021309 0.644020 -0.010218
v -0.022027 0.700011 -0.010218
v -0.022745 0.756003 -0.010218
v 0.013439 0.701169 -0.010218
v 0.014157 0.645177 -0.010218
v 0.010185 0.806633 -0.010218
v 0.012722 0.757161 -0.010218
v -0.078044 0.807711 -0.010218
v -0.057877 0.828455 -0.010218
v 0.041368 0.833796 -0.010218
v 0.065136 0.809484 -0.010218
v -0.128328 0.748032 -0.010218
v -0.100333 0.776118 -0.010218
v 0.097193 0.784733 -0.010218
v 0.124461 0.756058 -0.010218
v -0.278698 0.680466 -0.010218
v -0.300436 0.723526 -0.010218
v -0.205172 0.605903 -0.010218
v -0.245272 0.644987 -0.010218
v -0.180913 0.631800 -0.010218
v -0.140813 0.592715 -0.010218
v -0.257789 0.704072 -0.010218
v -0.221012 0.670884 -0.010218
v -0.320938 0.642447 -0.010218
v -0.321346 0.671376 -0.010218
v -0.254945 0.745329 -0.010218
v -0.220948 0.744945 -0.010218
v -0.165073 0.566818 -0.010218
v -0.314294 0.564692 -0.010218
v -0.314359 0.604347 -0.010218
v -0.180778 0.750111 -0.010218
v -0.141221 0.749116 -0.010218
v -0.042233 0.412750 -0.010218
v -0.016336 0.388490 -0.010218
v -0.372846 0.410587 -0.010218
v -0.418665 0.425665 -0.010218
v -0.268131 0.409854 -0.010218
v -0.324123 0.409136 -0.010218
v -0.269289 0.445320 -0.010218
v -0.213297 0.446038 -0.010218
v -0.043390 0.448216 -0.010218
v -0.374753 0.442065 -0.010218
v -0.325280 0.444602 -0.010218
v -0.375830 0.353836 -0.010218
v -0.396575 0.374004 -0.010218
v -0.401915 0.473249 -0.010218
v -0.377604 0.497016 -0.010218
v -0.212139 0.410572 -0.010218
v -0.316151 0.303553 -0.010218
v -0.344237 0.331547 -0.010218
v -0.352852 0.529074 -0.010218
v -0.324177 0.556341 -0.010218
v -0.248585 0.153182 -0.010218
v -0.291645 0.131444 -0.010218
v -0.174022 0.226708 -0.010218
v -0.213106 0.186608 -0.010218
v -0.199919 0.250968 -0.010218
v -0.160834 0.291068 -0.010218
v -0.272192 0.174092 -0.010218
v -0.239004 0.210868 -0.010218
v -0.210567 0.110943 -0.010218
v -0.239496 0.110535 -0.010218
v -0.313449 0.176935 -0.010218
v -0.313064 0.210932 -0.010218
v -0.134937 0.266808 -0.010218
v -0.132811 0.117586 -0.010218
v -0.172466 0.117522 -0.010218
v -0.318230 0.251103 -0.010218
v -0.317235 0.290660 -0.010218
v 0.021293 0.059035 -0.010218
v 0.006216 0.013216 -0.010218
v 0.022027 0.163750 -0.010218
v 0.022745 0.107758 -0.010218
v -0.013439 0.162592 -0.010218
v -0.014157 0.218584 -0.010218
v -0.010184 0.057128 -0.010218
v -0.012722 0.106600 -0.010218
v 0.078044 0.056050 -0.010218
v 0.057877 0.035306 -0.010218
v -0.041368 0.029965 -0.010218
v -0.065135 0.054277 -0.010218
v 0.021309 0.219742 -0.010218
v 0.128328 0.115729 -0.010218
v 0.100333 0.087643 -0.010218
v -0.097193 0.079028 -0.010218
v -0.124461 0.107703 -0.010218
v 0.278698 0.183296 -0.010218
v 0.300436 0.140236 -0.010218
v 0.205172 0.257859 -0.010218
v 0.245272 0.218774 -0.010218
v 0.180913 0.231962 -0.010218
v 0.140813 0.271046 -0.010218
v 0.257789 0.159689 -0.010218
v 0.221013 0.192877 -0.010218
v 0.320938 0.221314 -0.010218
v 0.321346 0.192385 -0.010218
v 0.254946 0.118432 -0.010218
v 0.220949 0.118817 -0.010218
v 0.165073 0.296944 -0.010218
v 0.314294 0.299070 -0.010218
v 0.314359 0.259415 -0.010218
v 0.180778 0.113650 -0.010218
v 0.141221 0.114646 -0.010218
v 0.016336 0.475271 -0.010218
v 0.043390 0.415545 -0.010218
v 0.019131 0.389648 -0.010218
vn -0.0000 -0.0000 1.0000
vn -0.0000 -0.0000 -1.0000
vn 0.9997 -0.0252 -0.0000
vn -0.7247 -0.6891 -0.0000
vn 0.7304 -0.6830 -0.0000
vn 0.0011 1.0000 -0.0000
vn 0.7063 -0.7079 -0.0000
vn -0.8390 0.5442 -0.0000
vn 0.0026 -1.0000 -0.0000
vn -0.7089 0.7053 -0.0000
vn -0.3499 0.9368 -0.0000
vn -0.9499 0.3126 -0.0000
vn 0.8927 0.4507 -0.0000
vn -0.6991 0.7151 -0.0000
vn -0.9999 -0.0128 -0.0000
vn 0.6980 0.7161 -0.0000
vn -0.7541 -0.6568 -0.0000
vn 0.7077 0.7065 -0.0000
vn -0.7060 -0.7083 -0.0000
vn 0.9999 0.0141 -0.0000
vn 0.7171 -0.6970 -0.0000
vn -0.7170 0.6971 -0.0000
vn -0.0335 0.9994 -0.0000
vn -0.7171 0.6970 -0.0000
vn -0.6830 -0.7304 -0.0000
vn 0.2084 -0.9780 -0.0000
vn -0.0128 0.9999 -0.0000
vn 0.5442 0.8390 -0.0000
vn -0.4150 -0.9098 -0.0000
vn -0.6891 0.7247 -0.0000
vn 0.9368 0.3499 -0.0000
vn -0.0113 -0.9999 -0.0000
vn -0.7079 -0.7063 -0.0000
vn 0.7151 0.6991 -0.0000
vn 0.9976 -0.0688 -0.0000
vn 0.3126 0.9499 -0.0000
vn 0.7053 0.7089 -0.0000
vn -0.6568 0.7540 -0.0000
vn -1.0000 0.0009 -0.0000
vn 0.4507 -0.8927 -0.0000
vn 0.7065 -0.7077 -0.0000
vn 0.7161 -0.6980 -0.0000
vn 1.0000 0.0016 -0.0000
vn -0.7083 0.7060 -0.0000
vn -0.0142 0.9999 -0.0000
vn -0.6970 -0.7171 -0.0000
vn 0.0142 -0.9999 -0.0000
vn 0.6970 0.7171 -0.0000
vn -0.6980 -0.7161 -0.0000
vn 0.6971 0.7170 -0.0000
vn 0.0141 -0.9999 -0.0000
vn 0.9999 0.0128 -0.0000
vn -0.0252 -0.9997 -0.0000
vn -0.7304 0.6830 -0.0000
vn 0.9994 0.0335 -0.0000
vn 0.7247 0.6891 -0.0000
vn 1.0000 -0.0011 -0.0000
vn 0.8390 -0.5442 -0.0000
vn -0.9780 -0.2084 -0.0000
vn -0.7063 0.7079 -0.0000
vn -1.0000 -0.0026 -0.0000
vn 0.3499 -0.9368 -0.0000
vn -0.9098 0.4150 -0.0000
vn 0.7089 -0.7053 -0.0000
vn 0.6991 -0.7151 -0.0000
vn -0.9999 0.0113 -0.0000
vn -0.8927 -0.4507 -0.0000
vn 0.7541 0.6568 -0.0000
vn -0.0688 -0.9976 -0.0000
vn -0.7077 -0.7065 -0.0000
vn 0.0009 1.0000 -0.0000
vn 0.7060 0.7083 -0.0000
vn 0.0016 -1.0000 -0.0000
vn 0.9999 0.0142 -0.0000
vn -0.9999 -0.0141 -0.0000
vn -0.9999 -0.0142 -0.0000
vn 0.0335 -0.9994 -0.0000
vn 0.0128 -0.9999 -0.0000
vn -0.7161 0.6980 -0.0000
vn -0.2084 0.9780 -0.0000
vn 0.6891 -0.7247 -0.0000
vn -0.9997 0.0252 -0.0000
vn 0.4150 0.9098 -0.0000
vn 0.7079 0.7063 -0.0000
vn -0.0011 -1.0000 -0.0000
vn 0.0113 0.9999 -0.0000
vn -0.7053 -0.7089 -0.0000
vn -0.0026 1.0000 -0.0000
vn -0.9976 0.0688 -0.0000
vn -0.4507 0.8927 -0.0000
vn 0.9499 -0.3126 -0.0000
vn 1.0000 -0.0009 -0.0000
vn -1.0000 -0.0016 -0.0000
vn -0.0141 0.9999 -0.0000
vn 0.7170 -0.6971 -0.0000
vn -0.9994 -0.0335 -0.0000
vn 0.6830 0.7304 -0.0000
vn 0.0252 0.9997 -0.0000
vn 0.9780 0.2084 -0.0000
vn -0.5442 -0.8390 -0.0000
vn -1.0000 0.0011 -0.0000
vn 0.9098 -0.4150 -0.0000
vn -0.9368 -0.3499 -0.0000
vn 1.0000 0.0026 -0.0000
vn 0.9999 -0.0113 -0.0000
vn -0.7151 -0.6991 -0.0000
vn 0.0688 0.9976 -0.0000
vn 0.6568 -0.7540 -0.0000
vn -0.3126 -0.9499 -0.0000
vn -0.0009 -1.0000 -0.0000
vn -0.7065 0.7077 -0.0000
vn -0.0016 1.0000 -0.0000
vn 0.7083 -0.7060 -0.0000
vn -0.6971 -0.7170 -0.0000
vt 0.000000 0.000000
s 0
usemtl Material.001
f 1/1/1 127/1/1 7/1/1 16/1/1 6/1/1 10/1/1 2/1/1 3/1/1 5/1/1 13/1/1 4/1/1
f 6/1/1 11/1/1 12/1/1 10/1/1
f 13/1/1 15/1/1 14/1/1 4/1/1
f 7/1/1 17/1/1 18/1/1 16/1/1
f 5/1/1 3/1/1 8/1/1 9/1/1
f 21/1/1 36/1/1 1/1/1 24/1/1 33/1/1 23/1/1 27/1/1 19/1/1 20/1/1 22/1/1 30/1/1
f 23/1/1 28/1/1 29/1/1 27/1/1
f 30/1/1 32/1/1 31/1/1 21/1/1
f 24/1/1 34/1/1 35/1/1 33/1/1
f 22/1/1 20/1/1 25/1/1 26/1/1
f 37/1/1 36/1/1 43/1/1 52/1/1 42/1/1 46/1/1 38/1/1 39/1/1 41/1/1 49/1/1 40/1/1
f 42/1/1 47/1/1 48/1/1 46/1/1
f 49/1/1 51/1/1 50/1/1 40/1/1
f 43/1/1 53/1/1 54/1/1 52/1/1
f 41/1/1 39/1/1 44/1/1 45/1/1
f 57/1/1 74/1/1 37/1/1 60/1/1 69/1/1 59/1/1 63/1/1 55/1/1 56/1/1 58/1/1 66/1/1
f 59/1/1 64/1/1 65/1/1 63/1/1
f 66/1/1 68/1/1 67/1/1 57/1/1
f 60/1/1 70/1/1 71/1/1 69/1/1
f 58/1/1 56/1/1 61/1/1 62/1/1
f 77/1/1 73/1/1 74/1/1 80/1/1 89/1/1 79/1/1 83/1/1 75/1/1 76/1/1 78/1/1 86/1/1
f 79/1/1 84/1/1 85/1/1 83/1/1
f 86/1/1 88/1/1 87/1/1 77/1/1
f 80/1/1 90/1/1 91/1/1 89/1/1
f 78/1/1 76/1/1 81/1/1 82/1/1
f 95/1/1 72/1/1 73/1/1 98/1/1 107/1/1 97/1/1 101/1/1 93/1/1 94/1/1 96/1/1 104/1/1
f 97/1/1 102/1/1 103/1/1 101/1/1
f 104/1/1 106/1/1 105/1/1 95/1/1
f 98/1/1 108/1/1 109/1/1 107/1/1
f 96/1/1 94/1/1 99/1/1 100/1/1
f 112/1/1 92/1/1 72/1/1 115/1/1 124/1/1 114/1/1 118/1/1 110/1/1 111/1/1 113/1/1 121/1/1
f 114/1/1 119/1/1 120/1/1 118/1/1
f 121/1/1 123/1/1 122/1/1 112/1/1
f 115/1/1 125/1/1 126/1/1 124/1/1
f 113/1/1 111/1/1 116/1/1 117/1/1
f 130/1/1 127/1/1 92/1/1 133/1/1 142/1/1 132/1/1 136/1/1 128/1/1 129/1/1 131/1/1 139/1/1
f 132/1/1 137/1/1 138/1/1 136/1/1
f 139/1/1 141/1/1 140/1/1 130/1/1
f 133/1/1 143/1/1 144/1/1 142/1/1
f 131/1/1 129/1/1 134/1/1 135/1/1
f 1/1/1 36/1/1 37/1/1 74/1/1 73/1/1 72/1/1 92/1/1 127/1/1
f 147/1/2 148/1/2 149/1/2 150/1/2 145/1/2 146/1/2 153/1/2 154/1/2 151/1/2 152/1/2 287/1/2
f 154/1/2 153/1/2 157/1/2 158/1/2
f 149/1/2 148/1/2 159/1/2 160/1/2
f 152/1/2 151/1/2 161/1/2 162/1/2
f 150/1/2 155/1/2 156/1/2 145/1/2
f 175/1/2 165/1/2 166/1/2 163/1/2 164/1/2 169/1/2 170/1/2 167/1/2 168/1/2 147/1/2 286/1/2
f 170/1/2 169/1/2 173/1/2 174/1/2
f 165/1/2 175/1/2 176/1/2 177/1/2
f 168/1/2 167/1/2 178/1/2 179/1/2
f 166/1/2 171/1/2 172/1/2 163/1/2
f 182/1/2 183/1/2 184/1/2 185/1/2 180/1/2 181/1/2 188/1/2 189/1/2 186/1/2 187/1/2 286/1/2
f 189/1/2 188/1/2 192/1/2 193/1/2
f 184/1/2 183/1/2 194/1/2 195/1/2
f 187/1/2 186/1/2 196/1/2 197/1/2
f 185/1/2 190/1/2 191/1/2 180/1/2
f 210/1/2 200/1/2 201/1/2 198/1/2 199/1/2 204/1/2 205/1/2 202/1/2 203/1/2 182/1/2 223/1/2
f 205/1/2 204/1/2 208/1/2 209/1/2
f 200/1/2 210/1/2 211/1/2 212/1/2
f 203/1/2 202/1/2 213/1/2 214/1/2
f 201/1/2 206/1/2 207/1/2 198/1/2
f 230/1/2 219/1/2 220/1/2 217/1/2 218/1/2 224/1/2 225/1/2 221/1/2 222/1/2 223/1/2 215/1/2
f 225/1/2 224/1/2 228/1/2 229/1/2
f 219/1/2 230/1/2 231/1/2 232/1/2
f 222/1/2 221/1/2 233/1/2 234/1/2
f 220/1/2 226/1/2 227/1/2 217/1/2
f 247/1/2 237/1/2 238/1/2 235/1/2 236/1/2 241/1/2 242/1/2 239/1/2 240/1/2 215/1/2 216/1/2
f 242/1/2 241/1/2 245/1/2 246/1/2
f 237/1/2 247/1/2 248/1/2 249/1/2
f 240/1/2 239/1/2 250/1/2 251/1/2
f 238/1/2 243/1/2 244/1/2 235/1/2
f 264/1/2 254/1/2 255/1/2 252/1/2 253/1/2 258/1/2 259/1/2 256/1/2 257/1/2 216/1/2 288/1/2
f 259/1/2 258/1/2 262/1/2 263/1/2
f 254/1/2 264/1/2 265/1/2 266/1/2
f 257/1/2 256/1/2 267/1/2 268/1/2
f 255/1/2 260/1/2 261/1/2 252/1/2
f 281/1/2 271/1/2 272/1/2 269/1/2 270/1/2 275/1/2 276/1/2 273/1/2 274/1/2 288/1/2 287/1/2
f 276/1/2 275/1/2 279/1/2 280/1/2
f 271/1/2 281/1/2 282/1/2 283/1/2
f 274/1/2 273/1/2 284/1/2 285/1/2
f 272/1/2 277/1/2 278/1/2 269/1/2
f 147/1/2 287/1/2 288/1/2 216/1/2 215/1/2 223/1/2 182/1/2 286/1/2
f 35/1/3 34/1/3 179/1/3 178/1/3
f 126/1/4 125/1/4 268/1/4 267/1/4
f 78/1/5 82/1/5 226/1/5 220/1/5
f 33/1/6 35/1/6 178/1/6 167/1/6
f 124/1/7 126/1/7 267/1/7 256/1/7
f 81/1/8 76/1/8 217/1/8 227/1/8
f 34/1/9 24/1/9 168/1/9 179/1/9
f 125/1/10 115/1/10 257/1/10 268/1/10
f 75/1/11 83/1/11 224/1/11 218/1/11
f 39/1/12 38/1/12 181/1/12 180/1/12
f 129/1/13 128/1/13 270/1/13 269/1/13
f 85/1/14 84/1/14 229/1/14 228/1/14
f 37/1/15 40/1/15 183/1/15 182/1/15
f 139/1/16 131/1/16 272/1/16 271/1/16
f 83/1/17 85/1/17 228/1/17 224/1/17
f 49/1/15 41/1/15 185/1/15 184/1/15
f 84/1/18 79/1/18 225/1/18 229/1/18
f 87/1/19 88/1/19 232/1/19 231/1/19
f 135/1/20 134/1/20 278/1/20 277/1/20
f 77/1/21 87/1/21 231/1/21 230/1/21
f 45/1/22 44/1/22 191/1/22 190/1/22
f 131/1/23 135/1/23 277/1/23 272/1/23
f 88/1/24 86/1/24 219/1/24 232/1/24
f 41/1/25 45/1/25 190/1/25 185/1/25
f 134/1/26 129/1/26 269/1/26 278/1/26
f 79/1/27 89/1/27 221/1/27 225/1/27
f 44/1/28 39/1/28 180/1/28 191/1/28
f 128/1/29 136/1/29 275/1/29 270/1/29
f 91/1/30 90/1/30 234/1/30 233/1/30
f 38/1/31 46/1/31 188/1/31 181/1/31
f 138/1/32 137/1/32 280/1/32 279/1/32
f 89/1/33 91/1/33 233/1/33 221/1/33
f 48/1/34 47/1/34 193/1/34 192/1/34
f 136/1/35 138/1/35 279/1/35 275/1/35
f 3/1/36 2/1/36 146/1/36 145/1/36
f 90/1/37 80/1/37 222/1/37 234/1/37
f 46/1/38 48/1/38 192/1/38 188/1/38
f 137/1/39 132/1/39 276/1/39 280/1/39
f 1/1/27 4/1/27 148/1/27 147/1/27
f 94/1/40 93/1/40 236/1/40 235/1/40
f 47/1/41 42/1/41 189/1/41 193/1/41
f 13/1/27 5/1/27 150/1/27 149/1/27
f 104/1/42 96/1/42 238/1/42 237/1/42
f 140/1/43 141/1/43 283/1/43 282/1/43
f 50/1/44 51/1/44 195/1/44 194/1/44
f 130/1/45 140/1/45 282/1/45 281/1/45
f 40/1/46 50/1/46 194/1/46 183/1/46
f 141/1/47 139/1/47 271/1/47 283/1/47
f 51/1/48 49/1/48 184/1/48 195/1/48
f 132/1/49 142/1/49 273/1/49 276/1/49
f 9/1/50 8/1/50 156/1/50 155/1/50
f 100/1/51 99/1/51 244/1/51 243/1/51
f 42/1/52 52/1/52 186/1/52 189/1/52
f 144/1/53 143/1/53 285/1/53 284/1/53
f 5/1/54 9/1/54 155/1/54 150/1/54
f 96/1/55 100/1/55 243/1/55 238/1/55
f 54/1/56 53/1/56 197/1/56 196/1/56
f 142/1/57 144/1/57 284/1/57 273/1/57
f 8/1/58 3/1/58 145/1/58 156/1/58
f 99/1/59 94/1/59 235/1/59 244/1/59
f 52/1/60 54/1/60 196/1/60 186/1/60
f 143/1/61 133/1/61 274/1/61 285/1/61
f 2/1/62 10/1/62 153/1/62 146/1/62
f 93/1/63 101/1/63 241/1/63 236/1/63
f 53/1/64 43/1/64 187/1/64 197/1/64
f 12/1/65 11/1/65 158/1/65 157/1/65
f 103/1/66 102/1/66 246/1/66 245/1/66
f 56/1/67 55/1/67 199/1/67 198/1/67
f 10/1/68 12/1/68 157/1/68 153/1/68
f 101/1/69 103/1/69 245/1/69 241/1/69
f 66/1/49 58/1/49 201/1/49 200/1/49
f 11/1/70 6/1/70 154/1/70 158/1/70
f 102/1/71 97/1/71 242/1/71 246/1/71
f 14/1/72 15/1/72 160/1/72 159/1/72
f 105/1/73 106/1/73 249/1/73 248/1/73
f 4/1/24 14/1/24 159/1/24 148/1/24
f 95/1/74 105/1/74 248/1/74 247/1/74
f 62/1/75 61/1/75 207/1/75 206/1/75
f 15/1/21 13/1/21 149/1/21 160/1/21
f 106/1/76 104/1/76 237/1/76 249/1/76
f 58/1/77 62/1/77 206/1/77 201/1/77
f 7/1/78 127/1/78 287/1/78 152/1/78
f 6/1/78 16/1/78 151/1/78 154/1/78
f 97/1/79 107/1/79 239/1/79 242/1/79
f 61/1/80 56/1/80 198/1/80 207/1/80
f 24/1/42 1/1/42 147/1/42 168/1/42
f 18/1/81 17/1/81 162/1/81 161/1/81
f 109/1/82 108/1/82 251/1/82 250/1/82
f 55/1/83 63/1/83 204/1/83 199/1/83
f 36/1/79 21/1/79 175/1/79 286/1/79
f 16/1/84 18/1/84 161/1/84 151/1/84
f 107/1/85 109/1/85 250/1/85 239/1/85
f 65/1/86 64/1/86 209/1/86 208/1/86
f 43/1/52 36/1/52 286/1/52 187/1/52
f 17/1/87 7/1/87 152/1/87 162/1/87
f 108/1/88 98/1/88 240/1/88 251/1/88
f 63/1/89 65/1/89 208/1/89 204/1/89
f 60/1/16 37/1/16 182/1/16 203/1/16
f 20/1/90 19/1/90 164/1/90 163/1/90
f 111/1/91 110/1/91 253/1/91 252/1/91
f 64/1/92 59/1/92 205/1/92 209/1/92
f 74/1/49 57/1/49 210/1/49 223/1/49
f 30/1/79 22/1/79 166/1/79 165/1/79
f 121/1/52 113/1/52 255/1/52 254/1/52
f 73/1/78 77/1/78 230/1/78 215/1/78
f 67/1/93 68/1/93 212/1/93 211/1/93
f 98/1/79 73/1/79 215/1/79 240/1/79
f 57/1/47 67/1/47 211/1/47 210/1/47
f 72/1/42 95/1/42 247/1/42 216/1/42
f 68/1/45 66/1/45 200/1/45 212/1/45
f 115/1/15 72/1/15 216/1/15 257/1/15
f 26/1/94 25/1/94 172/1/94 171/1/94
f 117/1/95 116/1/95 261/1/95 260/1/95
f 59/1/16 69/1/16 202/1/16 205/1/16
f 92/1/52 112/1/52 264/1/52 288/1/52
f 22/1/96 26/1/96 171/1/96 166/1/96
f 113/1/97 117/1/97 260/1/97 255/1/97
f 71/1/98 70/1/98 214/1/98 213/1/98
f 133/1/49 92/1/49 288/1/49 274/1/49
f 25/1/99 20/1/99 163/1/99 172/1/99
f 116/1/100 111/1/100 252/1/100 261/1/100
f 69/1/101 71/1/101 213/1/101 202/1/101
f 127/1/16 130/1/16 281/1/16 287/1/16
f 19/1/102 27/1/102 169/1/102 164/1/102
f 110/1/103 118/1/103 258/1/103 253/1/103
f 70/1/104 60/1/104 203/1/104 214/1/104
f 29/1/105 28/1/105 174/1/105 173/1/105
f 120/1/106 119/1/106 263/1/106 262/1/106
f 27/1/107 29/1/107 173/1/107 169/1/107
f 118/1/108 120/1/108 262/1/108 258/1/108
f 76/1/109 75/1/109 218/1/109 217/1/109
f 28/1/110 23/1/110 170/1/110 174/1/110
f 119/1/111 114/1/111 259/1/111 263/1/111
f 86/1/78 78/1/78 220/1/78 219/1/78
f 31/1/112 32/1/112 177/1/112 176/1/112
f 122/1/113 123/1/113 266/1/113 265/1/113
f 21/1/76 31/1/76 176/1/76 175/1/76
f 112/1/48 122/1/48 265/1/48 264/1/48
f 80/1/27 74/1/27 223/1/27 222/1/27
f 32/1/74 30/1/74 165/1/74 177/1/74
f 123/1/46 121/1/46 254/1/46 266/1/46
f 23/1/42 33/1/42 167/1/42 170/1/42
f 114/1/15 124/1/15 256/1/15 259/1/15
f 82/1/114 81/1/114 227/1/114 226/1/114
