# Blender 3.6.1
# www.blender.org
mtllib snowflake.mtl
o snowflake_1_
v 0.000000 0.000000 0.046364
v 0.000000 -0.167088 0.383928
v 0.000000 -0.134448 0.348412
v 0.000000 -0.068123 0.202030
v 0.000000 -0.113022 0.304629
v 0.000000 -0.145806 0.291049
v 0.000000 -0.100907 0.188451
v 0.000000 -0.110916 0.385122
v 0.000000 -0.083985 0.374547
v 0.000000 -0.163909 0.337161
v 0.000000 -0.215140 0.317084
v 0.000000 -0.203522 0.349036
v 0.000000 -0.090573 0.253330
v 0.000000 -0.013557 0.340934
v 0.000000 -0.050646 0.354966
v 0.000000 -0.123357 0.239750
v 0.000000 -0.247135 0.243939
v 0.000000 -0.234128 0.281310
v 0.000000 0.153329 0.389627
v 0.000000 0.151295 0.341434
v 0.000000 0.094687 0.191027
v 0.000000 0.135486 0.295324
v 0.000000 0.102702 0.308904
v 0.000000 0.061903 0.204607
v 0.000000 0.193893 0.350752
v 0.000000 0.205458 0.324232
v 0.000000 0.122508 0.354309
v 0.000000 0.072085 0.376339
v 0.000000 0.102894 0.390717
v 0.000000 0.115087 0.243176
v 0.000000 0.231490 0.250663
v 0.000000 0.215187 0.286811
v 0.000000 0.082303 0.256755
v 0.000000 -0.002260 0.347241
v 0.000000 0.033362 0.364470
v -0.000000 0.032784 0.032784
v -0.000000 0.046364 0.000000
v -0.000000 0.383928 0.167088
v -0.000000 0.348412 0.134448
v -0.000000 0.202030 0.068123
v -0.000000 0.304629 0.113022
v -0.000000 0.291049 0.145806
v -0.000000 0.188451 0.100907
v -0.000000 0.385122 0.110916
v -0.000000 0.374547 0.083985
v -0.000000 0.337161 0.163909
v -0.000000 0.317084 0.215140
v -0.000000 0.349036 0.203522
v -0.000000 0.253330 0.090573
v -0.000000 0.340934 0.013557
v -0.000000 0.354966 0.050646
v -0.000000 0.239750 0.123357
v 0.000000 0.243939 0.247135
v 0.000000 0.281310 0.234128
v -0.000000 0.389627 -0.153329
v -0.000000 0.341434 -0.151295
v -0.000000 0.191027 -0.094687
v -0.000000 0.295324 -0.135486
v -0.000000 0.308904 -0.102702
v -0.000000 0.204607 -0.061903
v -0.000000 0.350752 -0.193893
v -0.000000 0.324232 -0.205458
v -0.000000 0.354310 -0.122508
v -0.000000 0.376339 -0.072085
v -0.000000 0.390717 -0.102894
v -0.000000 0.243176 -0.115087
v -0.000000 0.250663 -0.231490
v -0.000000 0.286812 -0.215187
v -0.000000 0.256755 -0.082303
v -0.000000 0.347241 0.002260
v -0.000000 0.364470 -0.033362
v -0.000000 -0.032784 -0.032784
v -0.000000 0.000000 -0.046364
v -0.000000 0.032784 -0.032784
v -0.000000 0.167088 -0.383928
v -0.000000 0.134448 -0.348412
v -0.000000 0.068123 -0.202030
v -0.000000 0.113022 -0.304629
v -0.000000 0.145806 -0.291049
v -0.000000 0.100907 -0.188451
v -0.000000 0.110916 -0.385122
v -0.000000 0.083985 -0.374547
v -0.000000 0.163909 -0.337161
v -0.000000 0.215140 -0.317084
v -0.000000 0.203522 -0.349036
v -0.000000 0.090573 -0.253330
v -0.000000 0.013557 -0.340934
v -0.000000 0.050646 -0.354966
v -0.000000 0.123357 -0.239750
v -0.000000 0.247135 -0.243939
v -0.000000 0.234128 -0.281310
v -0.000000 -0.046364 0.000000
v -0.000000 -0.153329 -0.389627
v -0.000000 -0.151295 -0.341434
v -0.000000 -0.094687 -0.191027
v -0.000000 -0.135486 -0.295324
v -0.000000 -0.102702 -0.308904
v -0.000000 -0.061903 -0.204607
v -0.000000 -0.193893 -0.350752
v -0.000000 -0.205458 -0.324232
v -0.000000 -0.122508 -0.354309
v -0.000000 -0.072085 -0.376339
v -0.000000 -0.102894 -0.390717
v -0.000000 -0.115087 -0.243176
v -0.000000 -0.231490 -0.250663
v -0.000000 -0.215187 -0.286811
v -0.000000 -0.082303 -0.256755
v -0.000000 0.002260 -0.347241
v -0.000000 -0.033362 -0.364470
v -0.000000 -0.383928 -0.167088
v -0.000000 -0.348412 -0.134448
v -0.000000 -0.202030 -0.068123
v -0.000000 -0.304629 -0.113022
v -0.000000 -0.291049 -0.145806
v -0.000000 -0.188451 -0.100907
v -0.000000 -0.385122 -0.110916
v -0.000000 -0.374548 -0.083985
v -0.000000 -0.337161 -0.163909
v -0.000000 -0.317084 -0.215140
v -0.000000 -0.349036 -0.203522
v -0.000000 -0.253330 -0.090573
v -0.000000 -0.340934 -0.013557
v -0.000000 -0.354966 -0.050646
v -0.000000 -0.239750 -0.123357
v -0.000000 -0.243939 -0.247134
v -0.000000 -0.281310 -0.234128
v -0.000000 -0.032784 0.032784
v -0.000000 -0.389627 0.153329
v -0.000000 -0.341434 0.151295
v -0.000000 -0.191027 0.094687
v -0.000000 -0.295324 0.135487
v -0.000000 -0.308903 0.102703
v -0.000000 -0.204607 0.061903
v -0.000000 -0.350752 0.193893
v 0.000000 -0.324232 0.205459
v -0.000000 -0.354309 0.122508
v -0.000000 -0.376339 0.072085
v -0.000000 -0.390717 0.102894
v -0.000000 -0.243176 0.115087
v 0.000000 -0.250663 0.231491
v 0.000000 -0.286811 0.215187
v -0.000000 -0.256755 0.082303
v -0.000000 -0.347241 -0.002260
v -0.000000 -0.364470 0.033362
v 0.010218 -0.134448 0.348412
v 0.010218 -0.167088 0.383928
v 0.010218 0.000000 0.046364
v 0.010218 -0.068123 0.202030
v 0.010218 -0.090573 0.253330
v 0.010218 -0.113022 0.304629
v 0.010218 -0.123357 0.239750
v 0.010218 -0.100907 0.188451
v 0.010218 -0.163909 0.337161
v 0.010218 -0.145806 0.291049
v 0.010218 -0.083985 0.374547
v 0.010218 -0.110916 0.385122
v 0.010219 -0.203522 0.349036
v 0.010219 -0.215140 0.317084
v 0.010219 -0.013557 0.340934
v 0.010219 -0.050646 0.354966
v 0.010219 -0.234128 0.281310
v 0.010219 -0.247135 0.243939
v 0.010218 0.151295 0.341434
v 0.010218 0.153329 0.389627
v 0.010218 0.115087 0.243176
v 0.010218 0.135486 0.295324
v 0.010218 0.082303 0.256755
v 0.010218 0.061903 0.204607
v 0.010218 0.122508 0.354309
v 0.010218 0.102702 0.308904
v 0.010218 0.205458 0.324232
v 0.010218 0.193893 0.350752
v 0.010218 0.102894 0.390717
v 0.010219 0.072085 0.376339
v 0.010218 0.094687 0.191027
v 0.010218 0.231490 0.250663
v 0.010218 0.215187 0.286811
v 0.010219 0.033362 0.364470
v 0.010219 -0.002260 0.347241
v 0.010218 0.348412 0.134448
v 0.010218 0.383928 0.167088
v 0.010218 0.046364 0.000000
v 0.010218 0.202030 0.068123
v 0.010218 0.253330 0.090573
v 0.010218 0.304629 0.113022
v 0.010218 0.239750 0.123357
v 0.010218 0.188451 0.100907
v 0.010218 0.337161 0.163909
v 0.010218 0.291049 0.145806
v 0.010218 0.374547 0.083985
v 0.010218 0.385122 0.110916
v 0.010218 0.349036 0.203522
v 0.010218 0.317084 0.215140
v 0.010218 0.340934 0.013557
v 0.010218 0.354966 0.050646
v 0.010218 0.281310 0.234128
v 0.010218 0.243939 0.247135
v 0.010218 0.341434 -0.151295
v 0.010218 0.389627 -0.153329
v 0.010218 0.243176 -0.115087
v 0.010218 0.295324 -0.135486
v 0.010218 0.256755 -0.082303
v 0.010218 0.204607 -0.061903
v 0.010218 0.354310 -0.122508
v 0.010218 0.308904 -0.102702
v 0.010218 0.324232 -0.205458
v 0.010218 0.350752 -0.193893
v 0.010218 0.390717 -0.102894
v 0.010218 0.376339 -0.072085
v 0.010218 0.191027 -0.094687
v 0.010218 0.250663 -0.231490
v 0.010218 0.286812 -0.215187
v 0.010218 0.364470 -0.033362
v 0.010218 0.347241 0.002260
v 0.010218 0.000000 -0.046364
v 0.010218 -0.032784 -0.032784
v 0.010218 0.134448 -0.348412
v 0.010218 0.167088 -0.383928
v 0.010218 0.090573 -0.253330
v 0.010218 0.113022 -0.304629
v 0.010218 0.123357 -0.239750
v 0.010218 0.100907 -0.188451
v 0.010218 0.032784 -0.032784
v 0.010218 0.163909 -0.337161
v 0.010218 0.145806 -0.291049
v 0.010218 0.083985 -0.374547
v 0.010218 0.110916 -0.385122
v 0.010218 0.203522 -0.349036
v 0.010218 0.215140 -0.317084
v 0.010218 0.068123 -0.202030
v 0.010218 0.013557 -0.340934
v 0.010218 0.050646 -0.354966
v 0.010218 0.234128 -0.281310
v 0.010218 0.247135 -0.243939
v 0.010218 -0.151295 -0.341434
v 0.010218 -0.153329 -0.389627
v 0.010218 -0.115087 -0.243176
v 0.010218 -0.135486 -0.295324
v 0.010218 -0.082303 -0.256755
v 0.010218 -0.061903 -0.204607
v 0.010218 -0.122508 -0.354309
v 0.010218 -0.102702 -0.308904
v 0.010218 -0.205458 -0.324232
v 0.010218 -0.193893 -0.350752
v 0.010218 -0.102894 -0.390717
v 0.010218 -0.072085 -0.376339
v 0.010218 -0.094687 -0.191027
v 0.010218 -0.231490 -0.250663
v 0.010218 -0.215187 -0.286811
v 0.010218 -0.033362 -0.364470
v 0.010218 0.002260 -0.347241
v 0.010218 -0.348412 -0.134448
v 0.010218 -0.383928 -0.167088
v 0.010218 -0.253330 -0.090573
v 0.010218 -0.304629 -0.113022
v 0.010218 -0.239750 -0.123357
v 0.010218 -0.188451 -0.100907
v 0.010218 -0.337161 -0.163909
v 0.010218 -0.291049 -0.145806
v 0.010218 -0.374548 -0.083985
v 0.010218 -0.385122 -0.110916
v 0.010218 -0.349036 -0.203522
v 0.010218 -0.317084 -0.215140
v 0.010218 -0.202030 -0.068123
v 0.010218 -0.340934 -0.013557
v 0.010218 -0.354966 -0.050646
v 0.010218 -0.281310 -0.234128
v 0.010218 -0.243939 -0.247134
v 0.010218 -0.341434 0.151295
v 0.010218 -0.389627 0.153329
v 0.010218 -0.243176 0.115087
v 0.010218 -0.295324 0.135487
v 0.010218 -0.256755 0.082303
v 0.010218 -0.204607 0.061903
v 0.010218 -0.354309 0.122508
v 0.010218 -0.308903 0.102703
v 0.010218 -0.324232 0.205459
v 0.010218 -0.350752 0.193893
v 0.010218 -0.390717 0.102894
v 0.010218 -0.376339 0.072085
v 0.010218 -0.191027 0.094687
v 0.010218 -0.250663 0.231491
v 0.010218 -0.286811 0.215187
v 0.010218 -0.364470 0.033362
v 0.010218 -0.347241 -0.002260
v 0.010218 0.032784 0.032784
v 0.010218 -0.032784 0.032784
v 0.010218 -0.046364 0.000000
vn -1.0000 -0.0000 -0.0000
vn 1.0000 -0.0000 -0.0000
vn -0.0000 -0.4354 0.9002
vn -0.0000 -0.3287 -0.9444
vn -0.0000 -0.9235 0.3835
vn -0.0000 0.9104 0.4137
vn -0.0000 -0.9363 0.3513
vn -0.0000 0.8419 -0.5397
vn -0.0000 -0.9120 -0.4102
vn -0.0000 0.9350 -0.3548
vn -0.0000 0.9977 0.0678
vn -0.0000 0.6767 -0.7363
vn -0.0000 0.0422 0.9991
vn -0.0000 0.9398 -0.3417
vn -0.0000 0.4009 -0.9161
vn -0.0000 0.3643 0.9313
vn -0.0000 -0.2872 -0.9579
vn -0.0000 0.3515 0.9362
vn -0.0000 -0.3539 -0.9353
vn -0.0000 -0.3997 0.9166
vn -0.0000 -0.9308 0.3656
vn -0.0000 0.9308 -0.3655
vn -0.0000 0.9242 0.3818
vn -0.0000 0.9308 -0.3656
vn -0.0000 -0.3835 -0.9235
vn -0.0000 -0.9769 -0.2137
vn -0.0000 0.9161 0.4009
vn -0.0000 0.5397 0.8419
vn -0.0000 -0.6575 -0.7534
vn -0.0000 0.9444 -0.3287
vn -0.0000 -0.0678 0.9977
vn -0.0000 -0.9062 -0.4229
vn -0.0000 -0.3513 -0.9363
vn -0.0000 0.3417 0.9398
vn -0.0000 -0.4743 0.8804
vn -0.0000 0.7363 0.6767
vn -0.0000 0.3548 0.9350
vn -0.0000 0.9579 -0.2872
vn -0.0000 0.4134 -0.9105
vn -0.0000 -0.9991 0.0422
vn -0.0000 -0.9362 0.3515
vn -0.0000 -0.9313 0.3643
vn -0.0000 -0.4111 0.9116
vn -0.0000 0.9353 -0.3539
vn -0.0000 0.9167 0.3996
vn -0.0000 -0.3656 -0.9308
vn -0.0000 -0.9167 -0.3996
vn -0.0000 0.3656 0.9308
vn -0.0000 -0.3643 -0.9313
vn -0.0000 0.3655 0.9308
vn -0.0000 -0.9166 -0.3997
vn -0.0000 -0.4009 0.9161
vn -0.0000 -0.9002 -0.4354
vn -0.0000 0.9235 -0.3835
vn -0.0000 -0.3818 0.9242
vn -0.0000 0.3287 0.9444
vn -0.0000 -0.4137 0.9104
vn -0.0000 -0.8419 0.5397
vn -0.0000 0.2137 -0.9769
vn -0.0000 0.9363 -0.3513
vn -0.0000 0.4102 -0.9120
vn -0.0000 -0.9977 -0.0678
vn -0.0000 0.7534 -0.6575
vn -0.0000 -0.9350 0.3548
vn -0.0000 -0.9398 0.3417
vn -0.0000 0.4229 -0.9062
vn -0.0000 -0.0422 -0.9991
vn -0.0000 0.2872 0.9579
vn -0.0000 -0.8804 -0.4743
vn -0.0000 -0.3515 -0.9362
vn -0.0000 0.9105 0.4134
vn -0.0000 0.3539 0.9353
vn -0.0000 -0.9116 -0.4111
vn -0.0000 -0.3996 0.9167
vn -0.0000 0.3997 -0.9166
vn -0.0000 0.3996 -0.9167
vn -0.0000 -0.9242 -0.3818
vn -0.0000 -0.9161 -0.4009
vn -0.0000 0.9313 -0.3643
vn -0.0000 0.9769 0.2137
vn -0.0000 -0.9444 0.3287
vn -0.0000 0.4354 -0.9002
vn -0.0000 0.6575 0.7534
vn -0.0000 0.3513 0.9363
vn -0.0000 -0.9104 -0.4137
vn -0.0000 0.9062 0.4229
vn -0.0000 -0.3548 -0.9350
vn -0.0000 0.9120 0.4102
vn -0.0000 0.4743 -0.8804
vn -0.0000 0.9991 -0.0422
vn -0.0000 -0.6767 0.7363
vn -0.0000 -0.4134 0.9105
vn -0.0000 0.4111 -0.9116
vn -0.0000 0.9166 0.3997
vn -0.0000 -0.9308 0.3655
vn -0.0000 0.3818 -0.9242
vn -0.0000 0.3835 0.9235
vn -0.0000 0.9002 0.4354
vn -0.0000 -0.2137 0.9769
vn -0.0000 -0.5397 -0.8419
vn -0.0000 0.4137 -0.9104
vn -0.0000 -0.7534 0.6575
vn -0.0000 0.0678 -0.9977
vn -0.0000 -0.4102 0.9120
vn -0.0000 -0.4229 0.9062
vn -0.0000 -0.3417 -0.9398
vn -0.0000 0.8804 0.4743
vn -0.0000 -0.9579 0.2872
vn -0.0000 -0.7363 -0.6767
vn -0.0000 -0.9105 -0.4134
vn -0.0000 0.9362 -0.3515
vn -0.0000 0.9116 0.4111
vn -0.0000 -0.9353 0.3539
vn -0.0000 -0.3655 -0.9308
vt 0.000000 0.000000
s 0
f 1/1/1 127/1/1 7/1/1 16/1/1 6/1/1 10/1/1 2/1/1 3/1/1 5/1/1 13/1/1 4/1/1
f 6/1/1 11/1/1 12/1/1 10/1/1
f 13/1/1 15/1/1 14/1/1 4/1/1
f 7/1/1 17/1/1 18/1/1 16/1/1
f 5/1/1 3/1/1 8/1/1 9/1/1
f 21/1/1 36/1/1 1/1/1 24/1/1 33/1/1 23/1/1 27/1/1 19/1/1 20/1/1 22/1/1 30/1/1
f 23/1/1 28/1/1 29/1/1 27/1/1
f 30/1/1 32/1/1 31/1/1 21/1/1
f 24/1/1 34/1/1 35/1/1 33/1/1
f 22/1/1 20/1/1 25/1/1 26/1/1
f 37/1/1 36/1/1 43/1/1 52/1/1 42/1/1 46/1/1 38/1/1 39/1/1 41/1/1 49/1/1 40/1/1
f 42/1/1 47/1/1 48/1/1 46/1/1
f 49/1/1 51/1/1 50/1/1 40/1/1
f 43/1/1 53/1/1 54/1/1 52/1/1
f 41/1/1 39/1/1 44/1/1 45/1/1
f 57/1/1 74/1/1 37/1/1 60/1/1 69/1/1 59/1/1 63/1/1 55/1/1 56/1/1 58/1/1 66/1/1
f 59/1/1 64/1/1 65/1/1 63/1/1
f 66/1/1 68/1/1 67/1/1 57/1/1
f 60/1/1 70/1/1 71/1/1 69/1/1
f 58/1/1 56/1/1 61/1/1 62/1/1
f 77/1/1 73/1/1 74/1/1 80/1/1 89/1/1 79/1/1 83/1/1 75/1/1 76/1/1 78/1/1 86/1/1
f 79/1/1 84/1/1 85/1/1 83/1/1
f 86/1/1 88/1/1 87/1/1 77/1/1
f 80/1/1 90/1/1 91/1/1 89/1/1
f 78/1/1 76/1/1 81/1/1 82/1/1
f 95/1/1 72/1/1 73/1/1 98/1/1 107/1/1 97/1/1 101/1/1 93/1/1 94/1/1 96/1/1 104/1/1
f 97/1/1 102/1/1 103/1/1 101/1/1
f 104/1/1 106/1/1 105/1/1 95/1/1
f 98/1/1 108/1/1 109/1/1 107/1/1
f 96/1/1 94/1/1 99/1/1 100/1/1
f 112/1/1 92/1/1 72/1/1 115/1/1 124/1/1 114/1/1 118/1/1 110/1/1 111/1/1 113/1/1 121/1/1
f 114/1/1 119/1/1 120/1/1 118/1/1
f 121/1/1 123/1/1 122/1/1 112/1/1
f 115/1/1 125/1/1 126/1/1 124/1/1
f 113/1/1 111/1/1 116/1/1 117/1/1
f 130/1/1 127/1/1 92/1/1 133/1/1 142/1/1 132/1/1 136/1/1 128/1/1 129/1/1 131/1/1 139/1/1
f 132/1/1 137/1/1 138/1/1 136/1/1
f 139/1/1 141/1/1 140/1/1 130/1/1
f 133/1/1 143/1/1 144/1/1 142/1/1
f 131/1/1 129/1/1 134/1/1 135/1/1
f 1/1/1 36/1/1 37/1/1 74/1/1 73/1/1 72/1/1 92/1/1 127/1/1
f 147/1/2 148/1/2 149/1/2 150/1/2 145/1/2 146/1/2 153/1/2 154/1/2 151/1/2 152/1/2 287/1/2
f 154/1/2 153/1/2 157/1/2 158/1/2
f 149/1/2 148/1/2 159/1/2 160/1/2
f 152/1/2 151/1/2 161/1/2 162/1/2
f 150/1/2 155/1/2 156/1/2 145/1/2
f 175/1/2 165/1/2 166/1/2 163/1/2 164/1/2 169/1/2 170/1/2 167/1/2 168/1/2 147/1/2 286/1/2
f 170/1/2 169/1/2 173/1/2 174/1/2
f 165/1/2 175/1/2 176/1/2 177/1/2
f 168/1/2 167/1/2 178/1/2 179/1/2
f 166/1/2 171/1/2 172/1/2 163/1/2
f 182/1/2 183/1/2 184/1/2 185/1/2 180/1/2 181/1/2 188/1/2 189/1/2 186/1/2 187/1/2 286/1/2
f 189/1/2 188/1/2 192/1/2 193/1/2
f 184/1/2 183/1/2 194/1/2 195/1/2
f 187/1/2 186/1/2 196/1/2 197/1/2
f 185/1/2 190/1/2 191/1/2 180/1/2
f 210/1/2 200/1/2 201/1/2 198/1/2 199/1/2 204/1/2 205/1/2 202/1/2 203/1/2 182/1/2 223/1/2
f 205/1/2 204/1/2 208/1/2 209/1/2
f 200/1/2 210/1/2 211/1/2 212/1/2
f 203/1/2 202/1/2 213/1/2 214/1/2
f 201/1/2 206/1/2 207/1/2 198/1/2
f 230/1/2 219/1/2 220/1/2 217/1/2 218/1/2 224/1/2 225/1/2 221/1/2 222/1/2 223/1/2 215/1/2
f 225/1/2 224/1/2 228/1/2 229/1/2
f 219/1/2 230/1/2 231/1/2 232/1/2
f 222/1/2 221/1/2 233/1/2 234/1/2
f 220/1/2 226/1/2 227/1/2 217/1/2
f 247/1/2 237/1/2 238/1/2 235/1/2 236/1/2 241/1/2 242/1/2 239/1/2 240/1/2 215/1/2 216/1/2
f 242/1/2 241/1/2 245/1/2 246/1/2
f 237/1/2 247/1/2 248/1/2 249/1/2
f 240/1/2 239/1/2 250/1/2 251/1/2
f 238/1/2 243/1/2 244/1/2 235/1/2
f 264/1/2 254/1/2 255/1/2 252/1/2 253/1/2 258/1/2 259/1/2 256/1/2 257/1/2 216/1/2 288/1/2
f 259/1/2 258/1/2 262/1/2 263/1/2
f 254/1/2 264/1/2 265/1/2 266/1/2
f 257/1/2 256/1/2 267/1/2 268/1/2
f 255/1/2 260/1/2 261/1/2 252/1/2
f 281/1/2 271/1/2 272/1/2 269/1/2 270/1/2 275/1/2 276/1/2 273/1/2 274/1/2 288/1/2 287/1/2
f 276/1/2 275/1/2 279/1/2 280/1/2
f 271/1/2 281/1/2 282/1/2 283/1/2
f 274/1/2 273/1/2 284/1/2 285/1/2
f 272/1/2 277/1/2 278/1/2 269/1/2
f 147/1/2 287/1/2 288/1/2 216/1/2 215/1/2 223/1/2 182/1/2 286/1/2
f 35/1/3 34/1/3 179/1/3 178/1/3
f 126/1/4 125/1/4 268/1/4 267/1/4
f 78/1/5 82/1/5 226/1/5 220/1/5
f 33/1/6 35/1/6 178/1/6 167/1/6
f 124/1/7 126/1/7 267/1/7 256/1/7
f 81/1/8 76/1/8 217/1/8 227/1/8
f 34/1/9 24/1/9 168/1/9 179/1/9
f 125/1/10 115/1/10 257/1/10 268/1/10
f 75/1/11 83/1/11 224/1/11 218/1/11
f 39/1/12 38/1/12 181/1/12 180/1/12
f 129/1/13 128/1/13 270/1/13 269/1/13
f 85/1/14 84/1/14 229/1/14 228/1/14
f 37/1/15 40/1/15 183/1/15 182/1/15
f 139/1/16 131/1/16 272/1/16 271/1/16
f 83/1/17 85/1/17 228/1/17 224/1/17
f 49/1/15 41/1/15 185/1/15 184/1/15
f 84/1/18 79/1/18 225/1/18 229/1/18
f 87/1/19 88/1/19 232/1/19 231/1/19
f 135/1/20 134/1/20 278/1/20 277/1/20
f 77/1/21 87/1/21 231/1/21 230/1/21
f 45/1/22 44/1/22 191/1/22 190/1/22
f 131/1/23 135/1/23 277/1/23 272/1/23
f 88/1/24 86/1/24 219/1/24 232/1/24
f 41/1/25 45/1/25 190/1/25 185/1/25
f 134/1/26 129/1/26 269/1/26 278/1/26
f 79/1/27 89/1/27 221/1/27 225/1/27
f 44/1/28 39/1/28 180/1/28 191/1/28
f 128/1/29 136/1/29 275/1/29 270/1/29
f 91/1/30 90/1/30 234/1/30 233/1/30
f 38/1/31 46/1/31 188/1/31 181/1/31
f 138/1/32 137/1/32 280/1/32 279/1/32
f 89/1/33 91/1/33 233/1/33 221/1/33
f 48/1/34 47/1/34 193/1/34 192/1/34
f 136/1/35 138/1/35 279/1/35 275/1/35
f 3/1/36 2/1/36 146/1/36 145/1/36
f 90/1/37 80/1/37 222/1/37 234/1/37
f 46/1/38 48/1/38 192/1/38 188/1/38
f 137/1/39 132/1/39 276/1/39 280/1/39
f 1/1/27 4/1/27 148/1/27 147/1/27
f 94/1/40 93/1/40 236/1/40 235/1/40
f 47/1/41 42/1/41 189/1/41 193/1/41
f 13/1/27 5/1/27 150/1/27 149/1/27
f 104/1/42 96/1/42 238/1/42 237/1/42
f 140/1/43 141/1/43 283/1/43 282/1/43
f 50/1/44 51/1/44 195/1/44 194/1/44
f 130/1/45 140/1/45 282/1/45 281/1/45
f 40/1/46 50/1/46 194/1/46 183/1/46
f 141/1/47 139/1/47 271/1/47 283/1/47
f 51/1/48 49/1/48 184/1/48 195/1/48
f 132/1/49 142/1/49 273/1/49 276/1/49
f 9/1/50 8/1/50 156/1/50 155/1/50
f 100/1/51 99/1/51 244/1/51 243/1/51
f 42/1/52 52/1/52 186/1/52 189/1/52
f 144/1/53 143/1/53 285/1/53 284/1/53
f 5/1/54 9/1/54 155/1/54 150/1/54
f 96/1/55 100/1/55 243/1/55 238/1/55
f 54/1/56 53/1/56 197/1/56 196/1/56
f 142/1/57 144/1/57 284/1/57 273/1/57
f 8/1/58 3/1/58 145/1/58 156/1/58
f 99/1/59 94/1/59 235/1/59 244/1/59
f 52/1/60 54/1/60 196/1/60 186/1/60
f 143/1/61 133/1/61 274/1/61 285/1/61
f 2/1/62 10/1/62 153/1/62 146/1/62
f 93/1/63 101/1/63 241/1/63 236/1/63
f 53/1/64 43/1/64 187/1/64 197/1/64
f 12/1/65 11/1/65 158/1/65 157/1/65
f 103/1/66 102/1/66 246/1/66 245/1/66
f 56/1/67 55/1/67 199/1/67 198/1/67
f 10/1/68 12/1/68 157/1/68 153/1/68
f 101/1/69 103/1/69 245/1/69 241/1/69
f 66/1/49 58/1/49 201/1/49 200/1/49
f 11/1/70 6/1/70 154/1/70 158/1/70
f 102/1/71 97/1/71 242/1/71 246/1/71
f 14/1/72 15/1/72 160/1/72 159/1/72
f 105/1/73 106/1/73 249/1/73 248/1/73
f 4/1/24 14/1/24 159/1/24 148/1/24
f 95/1/74 105/1/74 248/1/74 247/1/74
f 62/1/75 61/1/75 207/1/75 206/1/75
f 15/1/21 13/1/21 149/1/21 160/1/21
f 106/1/76 104/1/76 237/1/76 249/1/76
f 58/1/77 62/1/77 206/1/77 201/1/77
f 7/1/78 127/1/78 287/1/78 152/1/78
f 6/1/78 16/1/78 151/1/78 154/1/78
f 97/1/79 107/1/79 239/1/79 242/1/79
f 61/1/80 56/1/80 198/1/80 207/1/80
f 24/1/42 1/1/42 147/1/42 168/1/42
f 18/1/81 17/1/81 162/1/81 161/1/81
f 109/1/82 108/1/82 251/1/82 250/1/82
f 55/1/83 63/1/83 204/1/83 199/1/83
f 36/1/79 21/1/79 175/1/79 286/1/79
f 16/1/84 18/1/84 161/1/84 151/1/84
f 107/1/85 109/1/85 250/1/85 239/1/85
f 65/1/86 64/1/86 209/1/86 208/1/86
f 43/1/52 36/1/52 286/1/52 187/1/52
f 17/1/87 7/1/87 152/1/87 162/1/87
f 108/1/88 98/1/88 240/1/88 251/1/88
f 63/1/89 65/1/89 208/1/89 204/1/89
f 60/1/16 37/1/16 182/1/16 203/1/16
f 20/1/90 19/1/90 164/1/90 163/1/90
f 111/1/91 110/1/91 253/1/91 252/1/91
f 64/1/92 59/1/92 205/1/92 209/1/92
f 74/1/49 57/1/49 210/1/49 223/1/49
f 30/1/79 22/1/79 166/1/79 165/1/79
f 121/1/52 113/1/52 255/1/52 254/1/52
f 73/1/78 77/1/78 230/1/78 215/1/78
f 67/1/93 68/1/93 212/1/93 211/1/93
f 98/1/79 73/1/79 215/1/79 240/1/79
f 57/1/47 67/1/47 211/1/47 210/1/47
f 72/1/42 95/1/42 247/1/42 216/1/42
f 68/1/45 66/1/45 200/1/45 212/1/45
f 115/1/15 72/1/15 216/1/15 257/1/15
f 26/1/94 25/1/94 172/1/94 171/1/94
f 117/1/95 116/1/95 261/1/95 260/1/95
f 59/1/16 69/1/16 202/1/16 205/1/16
f 92/1/52 112/1/52 264/1/52 288/1/52
f 22/1/96 26/1/96 171/1/96 166/1/96
f 113/1/97 117/1/97 260/1/97 255/1/97
f 71/1/98 70/1/98 214/1/98 213/1/98
f 133/1/49 92/1/49 288/1/49 274/1/49
f 25/1/99 20/1/99 163/1/99 172/1/99
f 116/1/100 111/1/100 252/1/100 261/1/100
f 69/1/101 71/1/101 213/1/101 202/1/101
f 127/1/16 130/1/16 281/1/16 287/1/16
f 19/1/102 27/1/102 169/1/102 164/1/102
f 110/1/103 118/1/103 258/1/103 253/1/103
f 70/1/104 60/1/104 203/1/104 214/1/104
f 29/1/105 28/1/105 174/1/105 173/1/105
f 120/1/106 119/1/106 263/1/106 262/1/106
f 27/1/107 29/1/107 173/1/107 169/1/107
f 118/1/108 120/1/108 262/1/108 258/1/108
f 76/1/109 75/1/109 218/1/109 217/1/109
f 28/1/110 23/1/110 170/1/110 174/1/110
f 119/1/111 114/1/111 259/1/111 263/1/111
f 86/1/78 78/1/78 220/1/78 219/1/78
f 31/1/112 32/1/112 177/1/112 176/1/112
f 122/1/113 123/1/113 266/1/113 265/1/113
f 21/1/76 31/1/76 176/1/76 175/1/76
f 112/1/48 122/1/48 265/1/48 264/1/48
f 80/1/27 74/1/27 223/1/27 222/1/27
f 32/1/74 30/1/74 165/1/74 177/1/74
f 123/1/46 121/1/46 254/1/46 266/1/46
f 23/1/42 33/1/42 167/1/42 170/1/42
f 114/1/15 124/1/15 256/1/15 259/1/15
f 82/1/114 81/1/114 227/1/114 226/1/114
